<?xml version="1.0" encoding="UTF-8"?>
<svg xmlns="http://www.w3.org/2000/svg" xmlns:xlink="http://www.w3.org/1999/xlink" width="32px" height="32px" viewBox="0 0 32 32" version="1.1">
<g id="surface1">
<path style=" stroke:none;fill-rule:nonzero;fill:rgb(0%,0%,0%);fill-opacity:1;" d="M 15.328125 8.417969 C 13.5 8.5 11.511719 8.980469 9.96875 9.714844 C 7.992188 10.652344 6.558594 12.039062 5.984375 13.566406 C 5.746094 14.195312 5.703125 14.480469 5.707031 15.375 C 5.707031 16.085938 5.757812 16.398438 5.972656 16.980469 C 6.449219 18.277344 7.601562 19.519531 9.203125 20.457031 C 9.75 20.777344 10.03125 20.917969 10.601562 21.152344 C 12.195312 21.808594 13.804688 22.128906 15.703125 22.160156 C 18.960938 22.214844 21.855469 21.351562 23.96875 19.6875 C 25.085938 18.808594 25.851562 17.765625 26.167969 16.695312 C 26.320312 16.179688 26.359375 15.890625 26.355469 15.269531 C 26.351562 14.507812 26.28125 14.128906 26.023438 13.5 C 25.421875 12.027344 24.128906 10.765625 22.25 9.824219 C 20.210938 8.800781 17.773438 8.304688 15.328125 8.417969 Z M 16.796875 8.707031 C 17.777344 8.769531 18.695312 8.914062 19.5625 9.140625 C 20.882812 9.492188 21.941406 9.949219 22.964844 10.613281 C 24.199219 11.417969 25.042969 12.339844 25.539062 13.4375 C 26.011719 14.476562 26.054688 15.78125 25.652344 16.875 C 25.480469 17.335938 25.304688 17.664062 24.953125 18.136719 C 24.058594 19.347656 22.679688 20.335938 20.960938 20.988281 C 19.726562 21.457031 18.351562 21.75 16.976562 21.832031 C 16.449219 21.867188 15.046875 21.851562 14.59375 21.804688 C 12.9375 21.644531 11.351562 21.199219 9.953125 20.492188 C 9.496094 20.261719 8.648438 19.703125 8.273438 19.386719 C 6.710938 18.066406 6.023438 16.648438 6.128906 14.9375 C 6.253906 12.871094 7.898438 10.964844 10.542969 9.804688 C 11.910156 9.203125 13.554688 8.8125 15.125 8.710938 C 15.507812 8.683594 16.398438 8.683594 16.796875 8.707031 Z M 16.796875 8.707031 "/>
<path style=" stroke:none;fill-rule:nonzero;fill:rgb(0%,0%,0%);fill-opacity:1;" d="M 15.320312 9.3125 C 14.726562 9.363281 13.976562 9.519531 13.609375 9.671875 C 13.492188 9.714844 13.40625 9.734375 13.28125 9.738281 C 12.953125 9.753906 12.429688 9.914062 11.828125 10.191406 C 11.113281 10.515625 10.476562 10.925781 10.097656 11.300781 C 9.835938 11.558594 9.75 11.71875 9.726562 11.972656 C 9.703125 12.261719 9.789062 12.433594 10.292969 13.113281 C 10.523438 13.421875 10.75 13.742188 10.796875 13.828125 C 10.890625 13.996094 10.921875 14.019531 11.085938 14.035156 C 11.332031 14.054688 11.605469 13.917969 11.945312 13.597656 L 12.078125 13.476562 L 12.101562 13.609375 C 12.183594 14.078125 12.378906 14.335938 12.796875 14.53125 C 12.894531 14.578125 13.019531 14.640625 13.070312 14.667969 L 13.164062 14.722656 L 13.109375 14.859375 C 13.070312 14.960938 13.058594 15.039062 13.070312 15.152344 L 13.085938 15.304688 L 12.945312 15.449219 C 12.328125 16.085938 12.070312 16.851562 12.289062 17.40625 C 12.335938 17.519531 12.382812 17.710938 12.402344 17.832031 C 12.46875 18.242188 12.507812 18.402344 12.632812 18.71875 C 12.835938 19.238281 13.023438 19.734375 13.042969 19.816406 L 13.0625 19.890625 L 12.820312 19.902344 C 12.6875 19.910156 12.5 19.929688 12.40625 19.949219 C 12.097656 20.011719 11.84375 20.242188 11.84375 20.457031 C 11.847656 20.644531 12.117188 20.839844 12.40625 20.867188 C 12.523438 20.878906 12.5625 20.890625 12.589844 20.929688 C 12.640625 21.003906 12.859375 21.101562 13.074219 21.144531 C 13.351562 21.199219 13.875 21.222656 13.992188 21.179688 C 14.050781 21.164062 14.101562 21.160156 14.128906 21.167969 C 14.257812 21.222656 14.589844 21.152344 14.773438 21.035156 C 14.878906 20.96875 14.96875 20.816406 14.96875 20.707031 C 14.96875 20.65625 14.980469 20.652344 15.304688 20.609375 C 15.492188 20.585938 15.644531 20.570312 15.648438 20.570312 C 15.648438 20.574219 15.625 20.617188 15.585938 20.667969 C 15.507812 20.777344 15.476562 20.976562 15.53125 21.0625 C 15.582031 21.140625 15.757812 21.246094 15.867188 21.261719 C 15.914062 21.265625 16.007812 21.285156 16.074219 21.292969 C 16.140625 21.304688 16.398438 21.320312 16.648438 21.328125 C 17.054688 21.335938 17.101562 21.332031 17.195312 21.296875 C 17.265625 21.265625 17.316406 21.261719 17.359375 21.269531 C 17.527344 21.316406 17.796875 21.265625 17.949219 21.152344 C 18.113281 21.035156 18.15625 20.890625 18.078125 20.714844 C 18.058594 20.675781 18.070312 20.667969 18.1875 20.644531 C 18.257812 20.632812 18.335938 20.617188 18.359375 20.613281 C 18.390625 20.605469 18.398438 20.617188 18.382812 20.683594 C 18.363281 20.789062 18.414062 20.894531 18.523438 20.964844 C 18.65625 21.046875 19.097656 21.128906 19.414062 21.121094 C 19.652344 21.121094 19.683594 21.113281 20.054688 20.996094 C 20.265625 20.925781 20.429688 20.863281 20.421875 20.851562 C 20.410156 20.839844 20.421875 20.839844 20.445312 20.847656 C 20.472656 20.851562 20.53125 20.828125 20.582031 20.792969 C 20.632812 20.757812 20.683594 20.730469 20.699219 20.730469 C 20.71875 20.730469 20.703125 20.742188 20.667969 20.761719 C 20.613281 20.792969 20.613281 20.792969 20.679688 20.769531 C 20.71875 20.757812 20.742188 20.738281 20.734375 20.730469 C 20.726562 20.722656 20.804688 20.679688 20.902344 20.636719 C 21.109375 20.554688 21.167969 20.542969 21.058594 20.605469 C 20.964844 20.660156 21.199219 20.566406 21.421875 20.460938 C 21.632812 20.363281 21.664062 20.339844 21.535156 20.386719 C 21.460938 20.410156 21.390625 20.417969 21.292969 20.40625 C 21.164062 20.394531 21.160156 20.390625 21.195312 20.347656 C 21.289062 20.226562 21.414062 20.148438 21.574219 20.113281 C 22.382812 19.9375 23.050781 19.472656 23.234375 18.953125 C 23.296875 18.773438 23.296875 18.363281 23.230469 18.191406 C 23.164062 18.011719 23.019531 17.828125 22.867188 17.738281 C 22.730469 17.652344 22.632812 17.648438 22.519531 17.714844 C 22.449219 17.753906 22.429688 17.796875 22.375 18.035156 C 22.308594 18.332031 22.199219 18.554688 22.035156 18.726562 C 21.9375 18.828125 21.621094 19.042969 21.570312 19.042969 C 21.558594 19.042969 21.523438 18.996094 21.488281 18.945312 C 21.410156 18.820312 21.148438 18.632812 20.972656 18.574219 L 20.832031 18.53125 L 20.664062 18.09375 C 20.574219 17.851562 20.460938 17.546875 20.40625 17.417969 C 20.351562 17.285156 20.207031 16.886719 20.078125 16.535156 C 19.949219 16.179688 19.804688 15.808594 19.761719 15.710938 C 19.648438 15.464844 19.4375 15.132812 19.289062 14.960938 C 19.191406 14.855469 19.160156 14.796875 19.148438 14.695312 C 19.136719 14.625 19.101562 14.523438 19.0625 14.464844 C 18.992188 14.367188 18.929688 14.207031 18.960938 14.207031 C 18.96875 14.207031 19.039062 14.257812 19.117188 14.316406 C 19.367188 14.5 19.667969 14.582031 19.851562 14.519531 C 19.890625 14.503906 20.054688 14.402344 20.21875 14.292969 C 20.382812 14.183594 20.71875 13.988281 20.96875 13.863281 C 21.949219 13.375 22.4375 12.933594 22.4375 12.542969 C 22.4375 12.308594 22.304688 12.042969 22.023438 11.730469 C 21.328125 10.9375 20.242188 10.160156 19.597656 9.996094 C 19.445312 9.960938 19.382812 9.957031 19.144531 9.964844 L 18.867188 9.980469 L 18.714844 9.886719 C 18.328125 9.65625 17.664062 9.460938 16.875 9.351562 C 16.53125 9.304688 15.683594 9.285156 15.320312 9.3125 Z M 16.234375 9.457031 C 16.679688 9.480469 16.972656 9.519531 17.375 9.605469 C 17.960938 9.734375 18.433594 9.925781 18.597656 10.105469 C 18.648438 10.164062 18.695312 10.207031 18.695312 10.207031 C 18.699219 10.207031 18.792969 10.191406 18.898438 10.167969 C 19.007812 10.144531 19.152344 10.125 19.214844 10.125 C 19.488281 10.125 19.800781 10.234375 20.164062 10.457031 C 20.496094 10.660156 21.144531 11.210938 21.578125 11.65625 C 21.960938 12.050781 22.132812 12.386719 22.066406 12.601562 C 21.964844 12.917969 21.601562 13.234375 20.921875 13.597656 C 20.460938 13.839844 20.34375 13.898438 20.34375 13.890625 C 20.34375 13.882812 20.492188 13.800781 20.679688 13.703125 C 21.273438 13.386719 21.597656 13.140625 21.804688 12.839844 C 21.871094 12.742188 21.886719 12.691406 21.882812 12.5625 C 21.882812 12.273438 21.753906 12.074219 21.25 11.570312 C 20.621094 10.945312 19.984375 10.464844 19.617188 10.339844 C 19.433594 10.277344 19.164062 10.257812 18.9375 10.289062 C 18.820312 10.300781 18.851562 10.304688 19.109375 10.304688 C 19.410156 10.300781 19.429688 10.304688 19.617188 10.371094 C 20.015625 10.515625 20.554688 10.921875 21.191406 11.558594 C 21.558594 11.925781 21.714844 12.113281 21.792969 12.289062 C 21.851562 12.421875 21.859375 12.652344 21.804688 12.753906 C 21.667969 13.011719 21.179688 13.390625 20.546875 13.726562 C 20.339844 13.832031 20.070312 13.992188 19.945312 14.078125 C 19.75 14.214844 19.710938 14.234375 19.640625 14.222656 C 19.464844 14.191406 19.257812 13.964844 19.171875 13.707031 C 19.101562 13.492188 19.078125 13.054688 19.125 12.65625 C 19.179688 12.15625 19.199219 11.507812 19.164062 11.375 C 19.078125 11.074219 18.789062 10.777344 18.410156 10.609375 C 18.300781 10.558594 18.203125 10.523438 18.195312 10.527344 C 18.1875 10.535156 18.210938 10.570312 18.242188 10.609375 C 18.339844 10.714844 18.460938 10.964844 18.519531 11.199219 C 18.59375 11.496094 18.585938 12.027344 18.503906 12.574219 C 18.460938 12.828125 18.429688 13.164062 18.429688 13.378906 C 18.429688 13.582031 18.414062 13.761719 18.398438 13.773438 C 18.382812 13.792969 18.382812 13.777344 18.394531 13.742188 C 18.414062 13.691406 18.40625 13.683594 18.363281 13.695312 C 18.328125 13.703125 18.316406 13.699219 18.332031 13.683594 C 18.34375 13.671875 18.328125 13.664062 18.296875 13.671875 C 18.199219 13.679688 18.214844 13.75 18.320312 13.792969 C 18.429688 13.835938 18.414062 13.847656 18.304688 13.808594 C 18.164062 13.761719 18.0625 13.679688 18.082031 13.636719 C 18.09375 13.605469 18.085938 13.601562 18.070312 13.621094 C 18.046875 13.640625 18.027344 13.636719 17.988281 13.59375 C 17.898438 13.507812 17.777344 13.273438 17.71875 13.082031 C 17.679688 12.964844 17.664062 12.929688 17.660156 12.980469 C 17.652344 13.164062 17.882812 13.574219 18.078125 13.726562 C 18.1875 13.8125 18.4375 13.898438 18.597656 13.902344 C 18.710938 13.902344 18.71875 13.910156 18.71875 13.960938 C 18.71875 14.042969 18.605469 14.234375 18.460938 14.402344 C 18.105469 14.808594 17.371094 15.136719 16.546875 15.246094 C 16.378906 15.269531 16.234375 15.289062 16.226562 15.285156 C 16.222656 15.28125 16.292969 15.238281 16.386719 15.1875 C 16.484375 15.136719 16.554688 15.089844 16.550781 15.085938 C 16.542969 15.082031 16.398438 15.117188 16.230469 15.167969 C 15.671875 15.320312 14.933594 15.378906 14.484375 15.300781 C 14.027344 15.222656 13.691406 15.042969 13.566406 14.808594 C 13.523438 14.738281 13.453125 14.652344 13.402344 14.617188 L 13.3125 14.5625 L 13.460938 14.5625 C 13.542969 14.5625 13.636719 14.554688 13.675781 14.550781 C 13.726562 14.539062 13.742188 14.550781 13.757812 14.605469 C 13.804688 14.757812 14.058594 14.925781 14.355469 15.007812 C 14.492188 15.042969 14.582031 15.050781 14.921875 15.050781 C 15.273438 15.050781 15.359375 15.042969 15.578125 14.992188 C 15.859375 14.929688 16.210938 14.796875 16.46875 14.648438 C 16.5625 14.59375 16.742188 14.496094 16.867188 14.429688 C 16.992188 14.363281 17.152344 14.261719 17.226562 14.203125 C 17.328125 14.113281 17.367188 14.09375 17.449219 14.09375 C 17.527344 14.09375 17.550781 14.082031 17.554688 14.046875 C 17.578125 13.949219 17.425781 13.851562 17.195312 13.816406 C 17.050781 13.792969 17.011719 13.820312 17.140625 13.855469 C 17.304688 13.894531 17.265625 13.980469 16.984375 14.183594 C 16.867188 14.269531 16.742188 14.332031 16.574219 14.386719 C 16.351562 14.460938 16.3125 14.46875 16.082031 14.46875 C 15.675781 14.464844 15.074219 14.316406 14.804688 14.144531 C 14.710938 14.085938 14.6875 14.054688 14.6875 13.992188 C 14.6875 13.953125 14.679688 13.90625 14.667969 13.886719 C 14.652344 13.859375 14.671875 13.855469 14.761719 13.855469 C 14.992188 13.855469 15.34375 13.726562 15.527344 13.578125 C 15.636719 13.488281 15.691406 13.335938 15.648438 13.234375 C 15.5625 13.015625 15.113281 12.871094 14.511719 12.871094 C 13.769531 12.871094 13.425781 13.117188 13.675781 13.46875 C 13.804688 13.652344 14.140625 13.816406 14.460938 13.847656 C 14.539062 13.851562 14.59375 13.863281 14.585938 13.871094 C 14.382812 14.160156 14.148438 14.292969 13.691406 14.382812 C 13.304688 14.457031 13.015625 14.410156 12.730469 14.222656 C 12.5 14.066406 12.429688 13.949219 12.429688 13.714844 C 12.433594 13.597656 12.449219 13.539062 12.503906 13.464844 C 12.605469 13.320312 13.117188 12.992188 13.535156 12.796875 C 13.832031 12.660156 13.925781 12.601562 14.050781 12.484375 C 14.199219 12.34375 14.28125 12.195312 14.28125 12.066406 C 14.28125 11.917969 14.039062 11.691406 13.777344 11.601562 C 13.582031 11.535156 13.230469 11.535156 13.03125 11.601562 C 12.734375 11.703125 12.566406 11.875 12.539062 12.097656 C 12.523438 12.207031 12.535156 12.242188 12.605469 12.339844 C 12.695312 12.460938 12.839844 12.550781 12.988281 12.574219 L 13.078125 12.585938 L 12.960938 12.523438 C 12.730469 12.390625 12.691406 12.152344 12.863281 11.925781 C 12.964844 11.792969 13.050781 11.734375 13.191406 11.707031 L 13.296875 11.691406 L 13.210938 11.734375 C 12.886719 11.890625 12.851562 12.234375 13.132812 12.445312 C 13.273438 12.554688 13.417969 12.59375 13.632812 12.578125 C 13.71875 12.570312 13.785156 12.566406 13.777344 12.570312 C 13.773438 12.574219 13.636719 12.621094 13.484375 12.675781 C 13.328125 12.730469 13.109375 12.824219 12.992188 12.886719 C 12.804688 12.988281 12.679688 13.039062 12.773438 12.976562 C 12.796875 12.960938 12.8125 12.933594 12.8125 12.914062 C 12.8125 12.890625 12.847656 12.828125 12.890625 12.769531 C 12.933594 12.714844 12.96875 12.644531 12.96875 12.621094 C 12.964844 12.574219 12.964844 12.574219 12.921875 12.613281 C 12.898438 12.636719 12.875 12.640625 12.875 12.628906 C 12.875 12.613281 12.851562 12.605469 12.820312 12.605469 C 12.78125 12.605469 12.777344 12.597656 12.804688 12.585938 C 12.835938 12.574219 12.824219 12.558594 12.765625 12.519531 C 12.722656 12.492188 12.6875 12.484375 12.6875 12.496094 C 12.6875 12.507812 12.699219 12.523438 12.714844 12.527344 C 12.730469 12.535156 12.75 12.574219 12.757812 12.613281 C 12.761719 12.652344 12.757812 12.679688 12.746094 12.675781 C 12.710938 12.660156 12.648438 12.726562 12.675781 12.753906 C 12.6875 12.769531 12.683594 12.769531 12.664062 12.761719 C 12.640625 12.753906 12.625 12.757812 12.625 12.765625 C 12.625 12.800781 12.664062 12.8125 12.714844 12.785156 C 12.757812 12.761719 12.757812 12.765625 12.722656 12.796875 C 12.679688 12.832031 12.671875 12.832031 12.605469 12.800781 C 12.566406 12.785156 12.53125 12.777344 12.53125 12.792969 C 12.53125 12.800781 12.546875 12.8125 12.566406 12.8125 C 12.582031 12.8125 12.585938 12.824219 12.574219 12.835938 C 12.5625 12.851562 12.566406 12.855469 12.585938 12.847656 C 12.609375 12.835938 12.625 12.84375 12.625 12.863281 C 12.625 12.882812 12.601562 12.902344 12.574219 12.910156 C 12.546875 12.917969 12.53125 12.9375 12.539062 12.960938 C 12.550781 12.984375 12.542969 13 12.527344 13 C 12.492188 13 12.492188 13.058594 12.53125 13.066406 C 12.550781 13.070312 12.523438 13.113281 12.464844 13.167969 L 12.367188 13.261719 L 12.492188 13.167969 C 12.5625 13.117188 12.617188 13.058594 12.609375 13.042969 C 12.605469 13.023438 12.632812 12.992188 12.664062 12.972656 C 12.699219 12.953125 12.714844 12.9375 12.699219 12.9375 C 12.679688 12.9375 12.652344 12.949219 12.632812 12.960938 C 12.613281 12.976562 12.585938 12.980469 12.570312 12.972656 C 12.5625 12.964844 12.582031 12.941406 12.617188 12.917969 C 12.65625 12.890625 12.6875 12.882812 12.6875 12.894531 C 12.6875 12.910156 12.703125 12.914062 12.722656 12.90625 C 12.742188 12.894531 12.75 12.914062 12.742188 12.960938 C 12.734375 13.003906 12.710938 13.027344 12.691406 13.023438 C 12.667969 13.023438 12.660156 13.027344 12.671875 13.042969 C 12.683594 13.054688 12.636719 13.105469 12.570312 13.152344 C 12.507812 13.199219 12.421875 13.265625 12.382812 13.296875 C 12.351562 13.328125 12.308594 13.355469 12.300781 13.355469 C 12.261719 13.355469 12.285156 13.226562 12.351562 13.046875 C 12.414062 12.882812 12.417969 12.820312 12.414062 12.394531 C 12.40625 11.878906 12.4375 11.605469 12.523438 11.386719 C 12.648438 11.078125 12.933594 10.707031 13.21875 10.480469 C 13.292969 10.421875 13.34375 10.367188 13.332031 10.359375 C 13.320312 10.351562 13.300781 10.355469 13.289062 10.363281 C 13.273438 10.378906 13.179688 10.414062 13.078125 10.449219 C 12.957031 10.488281 12.796875 10.574219 12.625 10.6875 C 12.316406 10.890625 12.121094 11.113281 11.980469 11.429688 C 11.902344 11.601562 11.898438 11.652344 11.875 12.1875 C 11.84375 12.886719 11.789062 13.113281 11.585938 13.386719 C 11.476562 13.535156 11.234375 13.753906 11.160156 13.773438 C 11.117188 13.789062 11.117188 13.789062 11.167969 13.789062 C 11.226562 13.792969 11.4375 13.714844 11.4375 13.691406 C 11.441406 13.683594 11.492188 13.640625 11.550781 13.59375 C 11.652344 13.519531 11.65625 13.515625 11.59375 13.582031 C 11.433594 13.738281 11.1875 13.863281 11.117188 13.816406 C 11.101562 13.804688 11.042969 13.714844 10.988281 13.613281 C 10.929688 13.511719 10.714844 13.199219 10.507812 12.921875 C 10.039062 12.296875 9.976562 12.136719 10.0625 11.832031 C 10.21875 11.289062 11.496094 10.421875 12.742188 10.015625 C 13.054688 9.914062 13.097656 9.90625 13.3125 9.902344 C 13.539062 9.902344 13.566406 9.894531 14 9.753906 C 14.601562 9.554688 15.042969 9.480469 15.8125 9.441406 C 15.835938 9.441406 16.027344 9.449219 16.234375 9.457031 Z M 12.84375 10.632812 C 12.84375 10.636719 12.820312 10.652344 12.789062 10.667969 C 12.742188 10.695312 12.738281 10.695312 12.777344 10.660156 C 12.820312 10.628906 12.84375 10.617188 12.84375 10.632812 Z M 18.578125 10.730469 C 18.609375 10.753906 18.628906 10.769531 18.617188 10.769531 C 18.609375 10.769531 18.578125 10.753906 18.546875 10.730469 C 18.515625 10.707031 18.496094 10.6875 18.507812 10.6875 C 18.515625 10.6875 18.546875 10.707031 18.578125 10.730469 Z M 12.6875 10.757812 C 12.6875 10.761719 12.664062 10.777344 12.632812 10.792969 C 12.585938 10.820312 12.582031 10.820312 12.621094 10.785156 C 12.664062 10.753906 12.6875 10.742188 12.6875 10.757812 Z M 18.460938 10.800781 C 18.453125 10.808594 18.433594 10.796875 18.425781 10.777344 C 18.40625 10.746094 18.410156 10.746094 18.441406 10.765625 C 18.460938 10.777344 18.472656 10.796875 18.460938 10.800781 Z M 18.703125 10.832031 C 18.734375 10.855469 18.753906 10.875 18.742188 10.875 C 18.734375 10.875 18.703125 10.855469 18.671875 10.832031 C 18.640625 10.808594 18.621094 10.792969 18.632812 10.792969 C 18.640625 10.792969 18.671875 10.808594 18.703125 10.832031 Z M 12.5 10.9375 C 12.480469 10.960938 12.460938 10.980469 12.449219 10.980469 C 12.445312 10.980469 12.449219 10.960938 12.46875 10.9375 C 12.488281 10.914062 12.507812 10.894531 12.519531 10.894531 C 12.523438 10.894531 12.519531 10.914062 12.5 10.9375 Z M 18.8125 10.9375 C 18.832031 10.960938 18.835938 10.980469 18.832031 10.980469 C 18.820312 10.980469 18.800781 10.960938 18.78125 10.9375 C 18.761719 10.914062 18.757812 10.894531 18.761719 10.894531 C 18.773438 10.894531 18.792969 10.914062 18.8125 10.9375 Z M 18.585938 11.046875 C 18.574219 11.0625 18.566406 11.054688 18.566406 11.035156 C 18.5625 11.011719 18.570312 10.996094 18.582031 11.007812 C 18.589844 11.011719 18.59375 11.03125 18.585938 11.046875 Z M 18.617188 11.128906 C 18.605469 11.144531 18.597656 11.140625 18.597656 11.117188 C 18.59375 11.09375 18.601562 11.082031 18.613281 11.089844 C 18.621094 11.097656 18.625 11.113281 18.617188 11.128906 Z M 18.960938 11.210938 C 18.949219 11.230469 18.941406 11.222656 18.941406 11.199219 C 18.9375 11.175781 18.945312 11.164062 18.957031 11.171875 C 18.964844 11.179688 18.96875 11.199219 18.960938 11.210938 Z M 18.648438 11.253906 C 18.636719 11.269531 18.632812 11.257812 18.632812 11.230469 C 18.632812 11.199219 18.636719 11.191406 18.648438 11.203125 C 18.652344 11.214844 18.652344 11.242188 18.648438 11.253906 Z M 18.992188 11.296875 C 18.980469 11.3125 18.972656 11.304688 18.972656 11.285156 C 18.96875 11.261719 18.976562 11.246094 18.988281 11.257812 C 18.996094 11.261719 19 11.28125 18.992188 11.296875 Z M 18.679688 11.472656 C 18.671875 11.507812 18.664062 11.484375 18.664062 11.425781 C 18.664062 11.367188 18.671875 11.34375 18.679688 11.367188 C 18.683594 11.394531 18.683594 11.441406 18.679688 11.472656 Z M 19.023438 11.398438 C 19.011719 11.417969 19.003906 11.410156 19.003906 11.386719 C 19 11.363281 19.007812 11.351562 19.019531 11.359375 C 19.027344 11.367188 19.03125 11.386719 19.023438 11.398438 Z M 12.148438 11.566406 C 12.136719 11.582031 12.128906 11.578125 12.128906 11.554688 C 12.125 11.53125 12.132812 11.519531 12.144531 11.527344 C 12.152344 11.535156 12.15625 11.550781 12.148438 11.566406 Z M 19.054688 11.753906 C 19.046875 11.792969 19.039062 11.765625 19.039062 11.699219 C 19.039062 11.628906 19.046875 11.597656 19.054688 11.628906 C 19.058594 11.660156 19.058594 11.714844 19.054688 11.753906 Z M 12.117188 11.691406 C 12.105469 11.707031 12.101562 11.695312 12.101562 11.667969 C 12.101562 11.636719 12.105469 11.628906 12.117188 11.640625 C 12.121094 11.652344 12.121094 11.679688 12.117188 11.691406 Z M 12.085938 12.523438 C 12.082031 12.667969 12.074219 12.550781 12.074219 12.269531 C 12.074219 11.988281 12.082031 11.875 12.085938 12.015625 C 12.089844 12.15625 12.089844 12.386719 12.085938 12.523438 Z M 13.910156 11.855469 C 14.058594 11.957031 13.808594 12.105469 13.648438 12.007812 C 13.582031 11.964844 13.578125 11.898438 13.648438 11.851562 C 13.710938 11.800781 13.828125 11.800781 13.910156 11.855469 Z M 18.679688 12.054688 C 18.671875 12.089844 18.664062 12.066406 18.664062 12.011719 C 18.664062 11.953125 18.671875 11.925781 18.679688 11.953125 C 18.683594 11.980469 18.683594 12.023438 18.679688 12.054688 Z M 19.023438 12.097656 C 19.011719 12.117188 19.007812 12.101562 19.007812 12.0625 C 19.007812 12.023438 19.011719 12.007812 19.023438 12.023438 C 19.027344 12.046875 19.027344 12.078125 19.023438 12.097656 Z M 18.648438 12.316406 C 18.640625 12.34375 18.632812 12.324219 18.632812 12.269531 C 18.632812 12.21875 18.640625 12.199219 18.648438 12.222656 C 18.652344 12.25 18.652344 12.292969 18.648438 12.316406 Z M 18.992188 12.304688 C 18.980469 12.328125 18.976562 12.308594 18.976562 12.269531 C 18.976562 12.230469 18.980469 12.214844 18.992188 12.234375 C 18.996094 12.253906 18.996094 12.289062 18.992188 12.304688 Z M 18.617188 12.484375 C 18.605469 12.496094 18.601562 12.488281 18.601562 12.457031 C 18.601562 12.429688 18.605469 12.417969 18.617188 12.429688 C 18.621094 12.445312 18.621094 12.472656 18.617188 12.484375 Z M 18.960938 12.535156 C 18.949219 12.554688 18.945312 12.542969 18.945312 12.511719 C 18.945312 12.476562 18.949219 12.460938 18.960938 12.472656 C 18.964844 12.488281 18.964844 12.515625 18.960938 12.535156 Z M 18.585938 12.679688 C 18.574219 12.703125 18.570312 12.691406 18.570312 12.65625 C 18.570312 12.621094 18.574219 12.605469 18.585938 12.617188 C 18.589844 12.632812 18.589844 12.664062 18.585938 12.679688 Z M 12.875 12.714844 C 12.820312 12.8125 12.765625 12.875 12.742188 12.875 C 12.726562 12.875 12.746094 12.839844 12.777344 12.800781 C 12.8125 12.757812 12.832031 12.710938 12.824219 12.699219 C 12.816406 12.683594 12.832031 12.671875 12.855469 12.671875 C 12.886719 12.671875 12.894531 12.683594 12.875 12.714844 Z M 18.929688 12.835938 C 18.921875 12.875 18.914062 12.851562 18.914062 12.78125 C 18.914062 12.710938 18.921875 12.679688 18.929688 12.710938 C 18.933594 12.742188 18.933594 12.800781 18.929688 12.835938 Z M 18.554688 12.972656 C 18.546875 13.007812 18.539062 12.980469 18.539062 12.917969 C 18.539062 12.855469 18.546875 12.828125 18.554688 12.859375 C 18.558594 12.890625 18.558594 12.941406 18.554688 12.972656 Z M 12.054688 12.898438 C 12.042969 12.914062 12.039062 12.902344 12.039062 12.875 C 12.039062 12.847656 12.042969 12.835938 12.054688 12.847656 C 12.058594 12.863281 12.058594 12.886719 12.054688 12.898438 Z M 18.898438 13.203125 C 18.890625 13.246094 18.882812 13.214844 18.882812 13.136719 C 18.882812 13.054688 18.890625 13.019531 18.898438 13.054688 C 18.902344 13.09375 18.902344 13.160156 18.898438 13.203125 Z M 11.921875 13.203125 C 11.894531 13.234375 11.882812 13.242188 11.890625 13.21875 C 11.902344 13.195312 11.921875 13.160156 11.929688 13.136719 C 11.941406 13.113281 11.953125 13.105469 11.960938 13.117188 C 11.96875 13.132812 11.949219 13.167969 11.921875 13.203125 Z M 15.09375 13.136719 C 15.148438 13.152344 15.1875 13.183594 15.1875 13.203125 C 15.1875 13.230469 15.15625 13.234375 14.957031 13.222656 C 14.832031 13.214844 14.6875 13.199219 14.636719 13.183594 C 14.550781 13.164062 14.550781 13.164062 14.605469 13.132812 C 14.6875 13.09375 14.976562 13.097656 15.09375 13.136719 Z M 11.78125 13.394531 C 11.761719 13.417969 11.742188 13.4375 11.730469 13.4375 C 11.726562 13.4375 11.730469 13.417969 11.75 13.394531 C 11.769531 13.371094 11.789062 13.355469 11.800781 13.355469 C 11.804688 13.355469 11.800781 13.371094 11.78125 13.394531 Z M 18.554688 13.492188 C 18.546875 13.527344 18.539062 13.503906 18.539062 13.449219 C 18.539062 13.390625 18.546875 13.363281 18.554688 13.390625 C 18.558594 13.417969 18.558594 13.460938 18.554688 13.492188 Z M 18.929688 13.453125 C 18.917969 13.472656 18.914062 13.460938 18.914062 13.425781 C 18.914062 13.390625 18.917969 13.378906 18.929688 13.390625 C 18.933594 13.402344 18.933594 13.433594 18.929688 13.453125 Z M 18.960938 13.585938 C 18.949219 13.605469 18.941406 13.597656 18.941406 13.574219 C 18.9375 13.550781 18.945312 13.539062 18.957031 13.546875 C 18.964844 13.554688 18.96875 13.574219 18.960938 13.585938 Z M 18.585938 13.671875 C 18.574219 13.6875 18.566406 13.679688 18.566406 13.660156 C 18.5625 13.636719 18.570312 13.621094 18.582031 13.632812 C 18.589844 13.636719 18.59375 13.65625 18.585938 13.671875 Z M 18.992188 13.671875 C 18.980469 13.6875 18.972656 13.679688 18.972656 13.660156 C 18.96875 13.636719 18.976562 13.621094 18.988281 13.632812 C 18.996094 13.636719 19 13.65625 18.992188 13.671875 Z M 18.648438 13.816406 C 18.636719 13.832031 18.628906 13.828125 18.628906 13.804688 C 18.625 13.78125 18.632812 13.769531 18.644531 13.777344 C 18.652344 13.785156 18.65625 13.800781 18.648438 13.816406 Z M 20.042969 14.085938 C 19.890625 14.195312 19.742188 14.285156 19.710938 14.289062 C 19.628906 14.296875 19.390625 14.199219 19.308594 14.117188 C 19.246094 14.058594 19.253906 14.058594 19.378906 14.140625 C 19.453125 14.1875 19.5625 14.238281 19.617188 14.253906 C 19.71875 14.273438 19.722656 14.273438 20.003906 14.085938 C 20.160156 13.980469 20.292969 13.894531 20.304688 13.894531 C 20.316406 13.894531 20.195312 13.984375 20.042969 14.085938 Z M 19.167969 13.949219 C 19.179688 13.964844 19.175781 13.976562 19.15625 13.96875 C 19.136719 13.960938 19.125 13.949219 19.125 13.933594 C 19.125 13.90625 19.148438 13.914062 19.167969 13.949219 Z M 15.128906 14.464844 C 15.339844 14.515625 15.5625 14.566406 15.621094 14.574219 L 15.726562 14.585938 L 15.558594 14.695312 C 15.269531 14.871094 14.835938 14.972656 14.585938 14.917969 C 14.375 14.871094 14.195312 14.777344 14.113281 14.671875 C 14.070312 14.617188 14.046875 14.558594 14.054688 14.546875 C 14.101562 14.503906 14.519531 14.375 14.628906 14.375 C 14.691406 14.375 14.914062 14.417969 15.128906 14.464844 Z M 18.875 14.648438 C 18.875 14.742188 18.617188 15.097656 18.445312 15.238281 C 17.902344 15.695312 17.132812 15.976562 16.171875 16.074219 C 16 16.089844 15.773438 16.105469 15.664062 16.105469 L 15.472656 16.105469 L 15.449219 16.027344 C 15.429688 15.945312 15.460938 15.71875 15.503906 15.664062 C 15.519531 15.640625 15.585938 15.621094 15.695312 15.613281 C 16.03125 15.582031 16.730469 15.457031 17.070312 15.363281 C 17.488281 15.246094 17.734375 15.160156 18.101562 14.992188 C 18.414062 14.855469 18.558594 14.753906 18.671875 14.605469 C 18.746094 14.503906 18.753906 14.503906 18.8125 14.535156 C 18.851562 14.558594 18.875 14.597656 18.875 14.648438 Z M 13.46875 15.058594 C 13.46875 15.074219 13.5625 15.148438 13.675781 15.222656 C 13.914062 15.382812 14.296875 15.511719 14.6875 15.574219 C 14.816406 15.59375 14.925781 15.613281 14.929688 15.613281 C 14.933594 15.617188 14.914062 15.652344 14.886719 15.699219 C 14.859375 15.742188 14.835938 15.839844 14.832031 15.910156 C 14.832031 15.988281 14.816406 16.042969 14.792969 16.042969 C 14.722656 16.042969 14.300781 15.933594 14.117188 15.871094 C 13.570312 15.675781 13.261719 15.316406 13.359375 14.984375 L 13.382812 14.90625 L 13.425781 14.96875 C 13.445312 15.003906 13.464844 15.042969 13.46875 15.058594 Z M 19.113281 15.144531 C 19.265625 15.34375 19.394531 15.574219 19.546875 15.925781 C 19.695312 16.269531 19.742188 16.429688 19.695312 16.410156 C 19.65625 16.394531 19.480469 16.539062 19.398438 16.664062 C 19.296875 16.804688 19.300781 17.167969 19.398438 17.335938 C 19.527344 17.546875 19.851562 17.730469 20.140625 17.757812 C 20.234375 17.765625 20.238281 17.769531 20.351562 18.050781 C 20.414062 18.207031 20.476562 18.378906 20.488281 18.429688 L 20.507812 18.519531 L 20.371094 18.519531 C 20.296875 18.519531 20.15625 18.535156 20.0625 18.550781 C 19.398438 18.667969 18.777344 19.078125 18.609375 19.511719 C 18.527344 19.722656 18.570312 20.046875 18.703125 20.179688 C 18.742188 20.222656 18.734375 20.222656 18.554688 20.246094 C 18.132812 20.308594 17.96875 20.328125 17.96875 20.3125 C 17.96875 20.226562 18.171875 19.820312 18.402344 19.453125 C 18.789062 18.835938 18.929688 18.53125 19.015625 18.117188 C 19.066406 17.882812 19.078125 17.605469 19.035156 17.605469 C 18.976562 17.605469 18.878906 17.816406 18.753906 18.191406 C 18.613281 18.617188 18.480469 18.886719 18.257812 19.214844 C 17.835938 19.851562 17.753906 20.027344 17.726562 20.351562 C 17.710938 20.574219 17.710938 20.589844 17.792969 20.683594 C 17.960938 20.894531 17.835938 21.144531 17.558594 21.144531 C 17.410156 21.144531 17.375 21.128906 17.375 21.039062 C 17.375 20.902344 17.3125 20.753906 17.246094 20.726562 C 17.1875 20.707031 17.183594 20.710938 17.207031 20.859375 C 17.222656 20.980469 17.214844 21.027344 17.175781 21.078125 C 17.070312 21.214844 16.84375 21.253906 16.695312 21.152344 C 16.617188 21.101562 16.617188 21.097656 16.636719 20.902344 C 16.660156 20.679688 16.628906 20.652344 16.523438 20.804688 C 16.480469 20.871094 16.457031 20.953125 16.457031 21.035156 C 16.453125 21.175781 16.445312 21.179688 16.265625 21.167969 C 16.101562 21.15625 16.058594 21.039062 16.148438 20.839844 C 16.1875 20.761719 16.210938 20.695312 16.199219 20.691406 C 16.195312 20.683594 16.148438 20.707031 16.097656 20.738281 C 15.996094 20.800781 15.9375 20.914062 15.9375 21.039062 C 15.9375 21.140625 15.902344 21.144531 15.777344 21.066406 C 15.613281 20.953125 15.675781 20.785156 15.960938 20.582031 C 16.152344 20.445312 16.15625 20.441406 16.15625 20.324219 C 16.15625 20.257812 16.210938 20.078125 16.285156 19.882812 C 16.550781 19.207031 16.59375 19.042969 16.6875 18.363281 C 16.726562 18.101562 16.765625 17.847656 16.78125 17.800781 C 16.832031 17.648438 16.746094 17.691406 16.609375 17.882812 L 16.539062 17.984375 L 16.4375 17.855469 C 16.332031 17.726562 16.234375 17.648438 16.195312 17.671875 C 16.164062 17.695312 16.242188 17.894531 16.351562 18.046875 L 16.445312 18.191406 L 16.410156 18.464844 C 16.351562 18.875 16.273438 19.164062 16.070312 19.714844 C 15.863281 20.285156 15.917969 20.242188 15.515625 20.117188 C 15.253906 20.035156 14.996094 19.902344 14.890625 19.796875 C 14.789062 19.695312 14.71875 19.449219 14.71875 19.203125 L 14.71875 19.015625 L 14.835938 19.117188 C 15 19.265625 15.445312 19.585938 15.460938 19.574219 C 15.492188 19.550781 15.253906 19.257812 15.070312 19.101562 C 14.972656 19.011719 14.71875 18.800781 14.511719 18.628906 C 14.035156 18.242188 13.804688 18.007812 13.609375 17.710938 C 13.523438 17.585938 13.445312 17.480469 13.429688 17.480469 C 13.40625 17.480469 13.429688 17.617188 13.488281 17.792969 C 13.554688 17.992188 13.746094 18.230469 14.074219 18.519531 L 14.367188 18.78125 L 14.386719 19.019531 C 14.425781 19.441406 14.492188 19.785156 14.660156 20.394531 C 14.730469 20.65625 14.726562 20.761719 14.640625 20.882812 C 14.53125 21.039062 14.21875 21.09375 14.132812 20.972656 C 14.097656 20.925781 14.097656 20.894531 14.140625 20.789062 C 14.191406 20.652344 14.1875 20.632812 14.113281 20.652344 C 14.027344 20.671875 13.960938 20.769531 13.925781 20.914062 L 13.890625 21.050781 L 13.773438 21.058594 C 13.566406 21.070312 13.503906 20.921875 13.625 20.695312 C 13.660156 20.628906 13.679688 20.570312 13.671875 20.566406 C 13.644531 20.546875 13.523438 20.636719 13.464844 20.71875 C 13.433594 20.765625 13.40625 20.851562 13.40625 20.910156 C 13.40625 21.003906 13.398438 21.015625 13.335938 21.027344 C 13.300781 21.035156 13.234375 21.027344 13.1875 21.015625 C 13.117188 20.992188 13.109375 20.976562 13.101562 20.863281 C 13.09375 20.769531 13.105469 20.714844 13.160156 20.640625 C 13.25 20.515625 13.210938 20.488281 13.082031 20.585938 C 12.976562 20.667969 12.90625 20.785156 12.90625 20.882812 C 12.90625 20.953125 12.828125 20.933594 12.765625 20.851562 C 12.617188 20.667969 12.804688 20.421875 13.15625 20.335938 C 13.378906 20.28125 13.394531 20.261719 13.363281 20.011719 C 13.335938 19.789062 13.289062 19.625 13.0625 19.023438 C 12.867188 18.503906 12.777344 18.191406 12.726562 17.824219 C 12.707031 17.707031 12.65625 17.496094 12.609375 17.355469 C 12.539062 17.132812 12.527344 17.066406 12.546875 16.90625 C 12.570312 16.667969 12.664062 16.355469 12.769531 16.164062 C 12.867188 15.980469 13.1875 15.519531 13.21875 15.519531 C 13.230469 15.519531 13.261719 15.550781 13.285156 15.585938 C 13.34375 15.683594 13.734375 15.941406 13.945312 16.019531 C 14.164062 16.101562 14.621094 16.207031 14.757812 16.207031 L 14.859375 16.207031 L 14.75 16.265625 C 14.429688 16.429688 14.304688 16.597656 14.300781 16.863281 C 14.300781 17.078125 14.402344 17.246094 14.632812 17.386719 C 14.855469 17.527344 15.023438 17.570312 15.34375 17.574219 C 15.570312 17.574219 15.636719 17.566406 15.785156 17.519531 C 16.03125 17.441406 16.199219 17.332031 16.316406 17.175781 C 16.398438 17.058594 16.414062 17.019531 16.414062 16.890625 C 16.410156 16.644531 16.269531 16.4375 16.039062 16.332031 L 15.929688 16.285156 L 16.265625 16.246094 C 16.886719 16.179688 17.355469 16.058594 17.84375 15.84375 C 18.304688 15.640625 18.683594 15.363281 18.878906 15.097656 C 18.917969 15.042969 18.960938 15.003906 18.980469 15.007812 C 18.996094 15.011719 19.054688 15.074219 19.113281 15.144531 Z M 15.308594 15.636719 C 15.246094 15.6875 15.234375 16.046875 15.292969 16.1875 C 15.34375 16.316406 15.335938 16.332031 15.234375 16.332031 C 15.175781 16.332031 15.152344 16.316406 15.109375 16.226562 C 15.042969 16.097656 15.035156 15.828125 15.085938 15.726562 C 15.125 15.65625 15.210938 15.609375 15.308594 15.605469 C 15.34375 15.605469 15.34375 15.609375 15.308594 15.636719 Z M 15.820312 16.34375 C 15.960938 16.40625 16.070312 16.5 16.160156 16.636719 C 16.292969 16.835938 16.195312 17.113281 15.929688 17.261719 C 15.757812 17.359375 15.601562 17.394531 15.339844 17.394531 C 15.066406 17.394531 14.847656 17.335938 14.691406 17.21875 C 14.585938 17.136719 14.46875 16.945312 14.46875 16.847656 C 14.46875 16.675781 14.636719 16.453125 14.839844 16.355469 L 14.9375 16.308594 L 14.976562 16.363281 C 15.007812 16.410156 15.003906 16.421875 14.941406 16.449219 C 14.601562 16.609375 14.527344 16.925781 14.789062 17.132812 C 15.101562 17.386719 15.753906 17.347656 15.972656 17.058594 C 16.152344 16.824219 16.015625 16.527344 15.671875 16.417969 C 15.558594 16.382812 15.53125 16.359375 15.53125 16.320312 C 15.53125 16.273438 15.539062 16.269531 15.617188 16.28125 C 15.664062 16.289062 15.757812 16.316406 15.820312 16.34375 Z M 15.753906 16.53125 C 15.867188 16.605469 15.925781 16.671875 15.953125 16.773438 C 16.027344 17.035156 15.589844 17.300781 15.199219 17.230469 C 14.792969 17.160156 14.617188 16.902344 14.800781 16.652344 C 14.910156 16.507812 15.089844 16.457031 15.460938 16.464844 C 15.628906 16.472656 15.667969 16.480469 15.753906 16.53125 Z M 22.804688 17.894531 C 22.84375 17.933594 22.910156 18.035156 22.945312 18.113281 C 23.035156 18.304688 23.039062 18.6875 22.957031 18.894531 C 22.835938 19.195312 22.550781 19.496094 22.210938 19.683594 C 22.078125 19.753906 21.609375 19.9375 21.554688 19.9375 C 21.546875 19.9375 21.5625 19.886719 21.585938 19.828125 C 21.613281 19.765625 21.636719 19.613281 21.640625 19.472656 L 21.648438 19.226562 L 21.785156 19.171875 C 22.230469 18.980469 22.59375 18.488281 22.648438 17.992188 C 22.667969 17.792969 22.6875 17.78125 22.804688 17.894531 Z M 20.84375 18.730469 C 21.023438 18.785156 21.144531 18.859375 21.234375 18.980469 C 21.414062 19.214844 21.421875 19.507812 21.257812 19.667969 C 21.101562 19.824219 20.773438 20.011719 20.523438 20.09375 C 20.398438 20.136719 20.316406 20.164062 20.339844 20.160156 C 20.382812 20.152344 20.460938 20.195312 20.554688 20.273438 C 20.585938 20.296875 20.589844 20.335938 20.578125 20.382812 C 20.546875 20.484375 20.460938 20.492188 20.289062 20.414062 C 20.070312 20.3125 19.796875 20.25 19.488281 20.226562 C 19.265625 20.210938 19.179688 20.195312 19.101562 20.152344 C 18.679688 19.9375 18.796875 19.359375 19.339844 19 C 19.785156 18.707031 20.390625 18.597656 20.84375 18.730469 Z M 21.296875 19.742188 C 21.25 19.917969 21.09375 20.136719 20.941406 20.25 C 20.804688 20.351562 20.511719 20.496094 20.617188 20.414062 C 20.636719 20.394531 20.648438 20.375 20.632812 20.367188 C 20.621094 20.359375 20.632812 20.359375 20.65625 20.363281 C 20.6875 20.371094 20.765625 20.335938 20.867188 20.265625 C 21.035156 20.152344 21.214844 19.917969 21.261719 19.742188 C 21.273438 19.703125 21.289062 19.667969 21.304688 19.667969 C 21.3125 19.667969 21.308594 19.703125 21.296875 19.742188 Z M 13.042969 20.035156 C 13.078125 20.042969 13.09375 20.074219 13.09375 20.125 C 13.09375 20.195312 13.082031 20.210938 12.957031 20.257812 C 12.710938 20.355469 12.53125 20.527344 12.53125 20.667969 C 12.53125 20.710938 12.515625 20.730469 12.476562 20.730469 C 12.25 20.730469 12.21875 20.488281 12.417969 20.308594 C 12.492188 20.238281 12.46875 20.214844 12.363281 20.261719 C 12.277344 20.296875 12.125 20.484375 12.125 20.546875 C 12.125 20.605469 12.070312 20.570312 12.046875 20.496094 C 12 20.355469 12.152344 20.171875 12.382812 20.089844 C 12.433594 20.074219 12.570312 20.050781 12.683594 20.042969 C 12.976562 20.019531 12.992188 20.019531 13.042969 20.035156 Z M 15.191406 20.199219 C 15.304688 20.246094 15.464844 20.308594 15.542969 20.328125 L 15.691406 20.367188 L 15.367188 20.425781 C 15.191406 20.457031 15.03125 20.488281 15.007812 20.492188 C 14.96875 20.503906 14.925781 20.410156 14.890625 20.238281 C 14.882812 20.179688 14.863281 20.113281 14.851562 20.082031 C 14.835938 20.035156 14.835938 20.035156 14.910156 20.070312 C 14.949219 20.089844 15.078125 20.148438 15.191406 20.199219 Z M 19.777344 20.308594 C 20.257812 20.410156 20.460938 20.582031 20.277344 20.738281 C 20.195312 20.804688 20.15625 20.804688 20.15625 20.734375 C 20.15625 20.636719 20.121094 20.582031 20.058594 20.582031 C 20.023438 20.582031 20.007812 20.59375 20.019531 20.613281 C 20.058594 20.679688 19.996094 20.832031 19.90625 20.894531 C 19.835938 20.949219 19.792969 20.960938 19.710938 20.953125 L 19.609375 20.949219 L 19.609375 20.8125 C 19.609375 20.738281 19.621094 20.636719 19.636719 20.585938 C 19.65625 20.511719 19.652344 20.496094 19.621094 20.503906 C 19.539062 20.523438 19.460938 20.644531 19.429688 20.808594 C 19.414062 20.894531 19.382812 20.976562 19.363281 20.984375 C 19.292969 21.015625 19.210938 21 19.121094 20.941406 C 19.046875 20.886719 19.03125 20.859375 19.03125 20.777344 C 19.03125 20.722656 19.066406 20.625 19.105469 20.554688 C 19.1875 20.421875 19.164062 20.40625 19.027344 20.503906 C 18.925781 20.574219 18.875 20.675781 18.875 20.816406 C 18.875 20.921875 18.839844 20.941406 18.710938 20.894531 C 18.492188 20.816406 18.570312 20.523438 18.855469 20.371094 C 19.054688 20.269531 19.449219 20.242188 19.777344 20.308594 Z M 19.777344 20.308594 "/>
<path style=" stroke:none;fill-rule:nonzero;fill:rgb(0%,0%,0%);fill-opacity:1;" d="M 14.203125 9.78125 C 14.132812 9.808594 14.027344 9.84375 13.96875 9.855469 C 13.839844 9.882812 13.753906 9.929688 13.875 9.90625 C 13.917969 9.898438 13.992188 9.878906 14.039062 9.863281 C 14.085938 9.847656 14.125 9.839844 14.125 9.847656 C 14.125 9.851562 14.027344 9.933594 13.914062 10.027344 C 13.519531 10.339844 13.257812 10.628906 13.058594 10.964844 C 12.964844 11.121094 12.816406 11.523438 12.851562 11.515625 C 12.871094 11.511719 12.902344 11.449219 12.929688 11.371094 C 13.023438 11.058594 13.25 10.699219 13.539062 10.398438 C 13.6875 10.246094 14.195312 9.824219 14.296875 9.765625 C 14.382812 9.714844 14.351562 9.722656 14.203125 9.78125 Z M 14.203125 9.78125 "/>
<path style=" stroke:none;fill-rule:nonzero;fill:rgb(0%,0%,0%);fill-opacity:1;" d="M 17.796875 10.027344 C 17.742188 10.042969 17.683594 10.074219 17.660156 10.089844 C 17.59375 10.144531 17.609375 10.308594 17.699219 10.566406 C 17.800781 10.855469 17.914062 11.332031 17.898438 11.429688 L 17.890625 11.511719 L 17.515625 11.503906 C 17.058594 11.492188 16.835938 11.519531 16.5625 11.617188 C 16.195312 11.75 16.007812 11.910156 15.929688 12.152344 C 15.878906 12.335938 15.976562 12.578125 16.15625 12.703125 C 16.191406 12.730469 16.238281 12.75 16.257812 12.75 C 16.277344 12.75 16.261719 12.734375 16.226562 12.714844 C 16.1875 12.699219 16.160156 12.671875 16.164062 12.65625 C 16.167969 12.640625 16.160156 12.628906 16.140625 12.625 C 16.070312 12.621094 15.992188 12.464844 15.976562 12.296875 C 15.960938 12.140625 15.964844 12.125 16.011719 12.136719 C 16.046875 12.144531 16.054688 12.15625 16.035156 12.164062 C 16.015625 12.171875 16.011719 12.191406 16.03125 12.207031 C 16.054688 12.234375 16.0625 12.234375 16.0625 12.207031 C 16.0625 12.1875 16.085938 12.160156 16.117188 12.144531 C 16.164062 12.117188 16.164062 12.121094 16.148438 12.1875 C 16.132812 12.242188 16.152344 12.226562 16.234375 12.113281 C 16.296875 12.023438 16.398438 11.929688 16.472656 11.886719 C 16.597656 11.808594 16.878906 11.707031 16.964844 11.707031 C 16.992188 11.707031 17.003906 11.703125 16.992188 11.695312 C 16.960938 11.675781 16.753906 11.730469 16.601562 11.792969 C 16.523438 11.828125 16.445312 11.847656 16.429688 11.839844 C 16.410156 11.832031 16.40625 11.835938 16.417969 11.851562 C 16.453125 11.886719 16.367188 11.902344 16.328125 11.867188 C 16.273438 11.820312 16.246094 11.824219 16.164062 11.890625 C 16.117188 11.925781 16.101562 11.933594 16.121094 11.90625 C 16.15625 11.859375 16.316406 11.757812 16.460938 11.691406 C 16.558594 11.644531 16.609375 11.632812 16.582031 11.664062 C 16.570312 11.671875 16.601562 11.675781 16.648438 11.671875 C 16.761719 11.660156 16.820312 11.664062 17.128906 11.683594 C 17.402344 11.707031 17.507812 11.699219 17.285156 11.675781 C 17.207031 11.667969 17.164062 11.652344 17.1875 11.644531 C 17.210938 11.636719 17.214844 11.617188 17.207031 11.605469 C 17.195312 11.59375 17.203125 11.582031 17.230469 11.582031 C 17.257812 11.582031 17.289062 11.59375 17.296875 11.605469 C 17.308594 11.617188 17.328125 11.621094 17.34375 11.613281 C 17.355469 11.609375 17.382812 11.617188 17.40625 11.636719 C 17.445312 11.667969 17.5 11.660156 17.5 11.621094 C 17.5 11.609375 17.484375 11.609375 17.464844 11.613281 C 17.445312 11.621094 17.4375 11.613281 17.445312 11.589844 C 17.449219 11.558594 17.433594 11.550781 17.367188 11.554688 C 17.09375 11.558594 16.996094 11.566406 17.007812 11.578125 C 17.019531 11.585938 16.960938 11.597656 16.886719 11.597656 C 16.808594 11.597656 16.753906 11.597656 16.757812 11.589844 C 16.765625 11.585938 16.875 11.570312 17.003906 11.550781 C 17.179688 11.523438 17.304688 11.519531 17.53125 11.535156 C 17.96875 11.554688 17.980469 11.550781 17.953125 11.386719 C 17.914062 11.183594 17.78125 10.671875 17.71875 10.496094 C 17.605469 10.179688 17.652344 10.0625 17.914062 10.03125 C 18.027344 10.015625 18.476562 10.105469 18.492188 10.144531 C 18.507812 10.171875 18.59375 10.171875 18.59375 10.144531 C 18.59375 10.132812 18.582031 10.128906 18.5625 10.136719 C 18.542969 10.140625 18.539062 10.132812 18.550781 10.117188 C 18.566406 10.089844 18.550781 10.082031 18.496094 10.082031 C 18.457031 10.082031 18.34375 10.066406 18.25 10.042969 C 18.050781 9.992188 17.929688 9.992188 17.796875 10.027344 Z M 16.6875 11.625 C 16.664062 11.636719 16.628906 11.644531 16.609375 11.644531 C 16.59375 11.644531 16.601562 11.636719 16.625 11.625 C 16.648438 11.613281 16.6875 11.605469 16.703125 11.605469 C 16.722656 11.605469 16.710938 11.613281 16.6875 11.625 Z M 16.324219 11.964844 C 16.292969 12.023438 16.265625 12.003906 16.257812 11.921875 C 16.253906 11.851562 16.257812 11.851562 16.296875 11.890625 C 16.320312 11.914062 16.335938 11.949219 16.324219 11.964844 Z M 16.035156 12.066406 C 16.019531 12.089844 16.003906 12.105469 16.003906 12.089844 C 16 12.058594 16.035156 11.996094 16.050781 12.007812 C 16.058594 12.011719 16.050781 12.039062 16.035156 12.066406 Z M 16.035156 12.066406 "/>
<path style=" stroke:none;fill-rule:nonzero;fill:rgb(0%,0%,0%);fill-opacity:1;" d="M 13.203125 10.0625 C 12.917969 10.089844 12.617188 10.183594 12.15625 10.390625 C 11.769531 10.5625 11.632812 10.640625 11.203125 10.925781 C 10.472656 11.414062 10.210938 11.710938 10.210938 12.058594 C 10.207031 12.324219 10.265625 12.453125 10.636719 12.984375 C 10.792969 13.210938 11.03125 13.582031 11.03125 13.605469 C 11.03125 13.636719 11.097656 13.734375 11.113281 13.726562 C 11.117188 13.71875 11.113281 13.691406 11.097656 13.664062 C 11.082031 13.636719 11.023438 13.527344 10.964844 13.425781 C 10.914062 13.324219 10.75 13.070312 10.605469 12.863281 C 10.304688 12.417969 10.25 12.296875 10.25 12.046875 C 10.25 11.871094 10.257812 11.855469 10.386719 11.675781 C 10.726562 11.214844 11.335938 10.789062 12.226562 10.390625 C 12.632812 10.207031 12.84375 10.140625 13.203125 10.089844 C 13.527344 10.046875 13.527344 10.027344 13.203125 10.0625 Z M 13.203125 10.0625 "/>
<path style=" stroke:none;fill-rule:nonzero;fill:rgb(0%,0%,0%);fill-opacity:1;" d="M 13.609375 10.941406 C 13.527344 10.972656 13.40625 11.042969 13.40625 11.0625 C 13.40625 11.070312 13.523438 11.082031 13.664062 11.085938 C 13.839844 11.09375 13.964844 11.109375 14.058594 11.140625 C 14.226562 11.199219 14.21875 11.195312 14.21875 11.144531 C 14.21875 10.984375 13.835938 10.855469 13.609375 10.941406 Z M 13.609375 10.941406 "/>
<path style=" stroke:none;fill-rule:nonzero;fill:rgb(0%,0%,0%);fill-opacity:1;" d="M 16.449219 11.175781 C 16.289062 11.226562 16.164062 11.308594 16.210938 11.335938 C 16.226562 11.34375 16.324219 11.335938 16.4375 11.320312 C 16.574219 11.300781 16.726562 11.292969 16.898438 11.300781 C 17.105469 11.3125 17.15625 11.308594 17.15625 11.285156 C 17.15625 11.21875 16.894531 11.125 16.710938 11.125 C 16.65625 11.125 16.539062 11.148438 16.449219 11.175781 Z M 16.449219 11.175781 "/>
<path style=" stroke:none;fill-rule:nonzero;fill:rgb(0%,0%,0%);fill-opacity:1;" d="M 12.566406 11.410156 C 12.566406 11.429688 12.574219 11.4375 12.585938 11.421875 C 12.59375 11.40625 12.589844 11.386719 12.582031 11.382812 C 12.570312 11.371094 12.5625 11.386719 12.566406 11.410156 Z M 12.566406 11.410156 "/>
<path style=" stroke:none;fill-rule:nonzero;fill:rgb(0%,0%,0%);fill-opacity:1;" d="M 13.164062 11.445312 C 13.011719 11.480469 12.863281 11.539062 12.886719 11.554688 C 12.898438 11.5625 12.957031 11.546875 13.023438 11.519531 C 13.199219 11.449219 13.5625 11.4375 13.769531 11.496094 C 13.976562 11.558594 14.023438 11.59375 14.128906 11.738281 C 14.175781 11.808594 14.214844 11.851562 14.214844 11.832031 C 14.21875 11.789062 14.101562 11.621094 14.039062 11.578125 C 13.867188 11.453125 13.433594 11.386719 13.164062 11.445312 Z M 13.164062 11.445312 "/>
<path style=" stroke:none;fill-rule:nonzero;fill:rgb(0%,0%,0%);fill-opacity:1;" d="M 13.554688 11.515625 C 13.578125 11.519531 13.605469 11.519531 13.617188 11.511719 C 13.628906 11.507812 13.609375 11.5 13.574219 11.503906 C 13.539062 11.503906 13.53125 11.507812 13.554688 11.515625 Z M 13.554688 11.515625 "/>
<path style=" stroke:none;fill-rule:nonzero;fill:rgb(0%,0%,0%);fill-opacity:1;" d="M 12.503906 11.597656 C 12.503906 11.617188 12.511719 11.625 12.523438 11.609375 C 12.53125 11.59375 12.527344 11.574219 12.519531 11.570312 C 12.507812 11.558594 12.5 11.574219 12.503906 11.597656 Z M 12.503906 11.597656 "/>
<path style=" stroke:none;fill-rule:nonzero;fill:rgb(0%,0%,0%);fill-opacity:1;" d="M 17.519531 11.574219 C 17.539062 11.582031 17.546875 11.605469 17.539062 11.628906 C 17.523438 11.671875 17.523438 11.671875 17.570312 11.644531 C 17.597656 11.628906 17.609375 11.605469 17.601562 11.597656 C 17.589844 11.585938 17.605469 11.582031 17.632812 11.589844 C 17.664062 11.597656 17.6875 11.59375 17.6875 11.582031 C 17.6875 11.570312 17.640625 11.5625 17.585938 11.566406 C 17.53125 11.566406 17.5 11.570312 17.519531 11.574219 Z M 17.519531 11.574219 "/>
<path style=" stroke:none;fill-rule:nonzero;fill:rgb(0%,0%,0%);fill-opacity:1;" d="M 17.25 11.625 C 17.25 11.636719 17.265625 11.644531 17.285156 11.644531 C 17.300781 11.644531 17.304688 11.636719 17.296875 11.625 C 17.289062 11.613281 17.273438 11.605469 17.261719 11.605469 C 17.257812 11.605469 17.25 11.613281 17.25 11.625 Z M 17.25 11.625 "/>
<path style=" stroke:none;fill-rule:nonzero;fill:rgb(0%,0%,0%);fill-opacity:1;" d="M 12.476562 11.855469 C 12.476562 11.953125 12.484375 12.011719 12.496094 11.988281 C 12.507812 11.964844 12.507812 11.886719 12.5 11.8125 L 12.476562 11.675781 Z M 12.476562 11.855469 "/>
<path style=" stroke:none;fill-rule:nonzero;fill:rgb(0%,0%,0%);fill-opacity:1;" d="M 16.363281 11.757812 C 16.28125 11.800781 16.277344 11.804688 16.328125 11.832031 C 16.355469 11.847656 16.375 11.851562 16.371094 11.839844 C 16.355469 11.785156 16.375 11.769531 16.445312 11.792969 C 16.507812 11.8125 16.511719 11.8125 16.460938 11.785156 C 16.402344 11.753906 16.402344 11.753906 16.460938 11.730469 C 16.492188 11.71875 16.503906 11.707031 16.484375 11.707031 C 16.46875 11.707031 16.414062 11.730469 16.363281 11.757812 Z M 16.363281 11.757812 "/>
<path style=" stroke:none;fill-rule:nonzero;fill:rgb(0%,0%,0%);fill-opacity:1;" d="M 16.757812 11.792969 C 16.53125 11.867188 16.367188 11.984375 16.257812 12.144531 C 16.117188 12.347656 16.164062 12.640625 16.355469 12.746094 C 16.390625 12.769531 16.386719 12.753906 16.339844 12.667969 C 16.230469 12.476562 16.289062 12.242188 16.484375 12.070312 C 16.601562 11.96875 16.632812 11.984375 16.539062 12.097656 C 16.382812 12.285156 16.441406 12.542969 16.679688 12.691406 C 17.117188 12.972656 17.808594 12.730469 17.8125 12.296875 C 17.816406 12.199219 17.820312 12.183594 17.851562 12.214844 C 17.902344 12.277344 17.917969 12.523438 17.875 12.617188 C 17.820312 12.726562 17.695312 12.851562 17.597656 12.886719 L 17.515625 12.917969 L 17.609375 12.902344 C 17.851562 12.867188 18.0625 12.742188 18.125 12.597656 C 18.179688 12.464844 18.148438 12.277344 18.054688 12.140625 C 17.804688 11.78125 17.242188 11.632812 16.757812 11.792969 Z M 17.414062 12.054688 C 17.488281 12.101562 17.488281 12.199219 17.410156 12.230469 C 17.265625 12.277344 17.09375 12.222656 17.09375 12.128906 C 17.09375 12.035156 17.304688 11.988281 17.414062 12.054688 Z M 17.414062 12.054688 "/>
<path style=" stroke:none;fill-rule:nonzero;fill:rgb(0%,0%,0%);fill-opacity:1;" d="M 11.585938 11.949219 C 11.578125 11.972656 11.558594 12.027344 11.546875 12.074219 C 11.527344 12.148438 11.523438 12.152344 11.480469 12.117188 C 11.460938 12.09375 11.429688 12.046875 11.417969 12.007812 C 11.386719 11.894531 11.339844 11.925781 11.363281 12.046875 C 11.382812 12.164062 11.464844 12.300781 11.515625 12.300781 C 11.582031 12.300781 11.628906 12.183594 11.617188 12.046875 C 11.613281 11.964844 11.601562 11.921875 11.585938 11.949219 Z M 11.585938 11.949219 "/>
<path style=" stroke:none;fill-rule:nonzero;fill:rgb(0%,0%,0%);fill-opacity:1;" d="M 12.46875 12.492188 C 12.46875 12.652344 12.453125 12.835938 12.433594 12.902344 C 12.414062 12.972656 12.410156 13.027344 12.417969 13.035156 C 12.425781 13.042969 12.449219 12.976562 12.472656 12.890625 C 12.507812 12.757812 12.519531 12.734375 12.570312 12.746094 C 12.601562 12.75 12.625 12.742188 12.625 12.730469 C 12.625 12.722656 12.605469 12.714844 12.582031 12.722656 C 12.523438 12.734375 12.5 12.667969 12.5 12.488281 L 12.5 12.34375 L 12.566406 12.410156 C 12.601562 12.449219 12.644531 12.480469 12.660156 12.480469 C 12.675781 12.480469 12.660156 12.453125 12.625 12.421875 C 12.585938 12.386719 12.539062 12.324219 12.515625 12.277344 C 12.476562 12.203125 12.472656 12.214844 12.46875 12.492188 Z M 12.46875 12.492188 "/>
<path style=" stroke:none;fill-rule:nonzero;fill:rgb(0%,0%,0%);fill-opacity:1;" d="M 16.101562 12.386719 C 16.101562 12.429688 16.109375 12.449219 16.117188 12.421875 C 16.121094 12.394531 16.121094 12.359375 16.117188 12.335938 C 16.105469 12.320312 16.101562 12.339844 16.101562 12.386719 Z M 16.101562 12.386719 "/>
<path style=" stroke:none;fill-rule:nonzero;fill:rgb(0%,0%,0%);fill-opacity:1;" d="M 19.617188 12.355469 C 19.601562 12.371094 19.570312 12.449219 19.535156 12.53125 C 19.488281 12.640625 19.472656 12.664062 19.46875 12.613281 L 19.460938 12.550781 L 19.429688 12.625 C 19.398438 12.710938 19.441406 12.8125 19.515625 12.8125 C 19.582031 12.8125 19.644531 12.707031 19.667969 12.5625 C 19.691406 12.445312 19.648438 12.292969 19.617188 12.355469 Z M 19.617188 12.355469 "/>
<path style=" stroke:none;fill-rule:nonzero;fill:rgb(0%,0%,0%);fill-opacity:1;" d="M 14.394531 12.621094 C 14.375 12.640625 14.753906 12.667969 14.980469 12.664062 C 15.078125 12.664062 15.09375 12.660156 15.046875 12.648438 C 14.953125 12.621094 14.414062 12.601562 14.394531 12.621094 Z M 14.394531 12.621094 "/>
<path style=" stroke:none;fill-rule:nonzero;fill:rgb(0%,0%,0%);fill-opacity:1;" d="M 12.613281 12.664062 C 12.601562 12.671875 12.617188 12.679688 12.640625 12.679688 C 12.664062 12.679688 12.679688 12.671875 12.667969 12.664062 C 12.660156 12.652344 12.648438 12.644531 12.640625 12.644531 C 12.632812 12.644531 12.621094 12.652344 12.613281 12.664062 Z M 12.613281 12.664062 "/>
<path style=" stroke:none;fill-rule:nonzero;fill:rgb(0%,0%,0%);fill-opacity:1;" d="M 16.3125 12.890625 C 16.3125 12.898438 16.339844 12.933594 16.375 12.972656 C 16.4375 13.042969 16.578125 13.101562 16.796875 13.144531 C 16.867188 13.160156 16.988281 13.195312 17.070312 13.226562 C 17.226562 13.285156 17.269531 13.277344 17.238281 13.199219 C 17.210938 13.128906 17.039062 13.058594 16.648438 12.957031 C 16.296875 12.867188 16.3125 12.867188 16.3125 12.890625 Z M 16.3125 12.890625 "/>
<path style=" stroke:none;fill-rule:nonzero;fill:rgb(0%,0%,0%);fill-opacity:1;" d="M 17.726562 12.957031 C 17.726562 12.988281 17.730469 12.996094 17.742188 12.984375 C 17.746094 12.972656 17.746094 12.945312 17.742188 12.929688 C 17.730469 12.917969 17.726562 12.929688 17.726562 12.957031 Z M 17.726562 12.957031 "/>
<path style=" stroke:none;fill-rule:nonzero;fill:rgb(0%,0%,0%);fill-opacity:1;" d="M 11.175781 13.699219 C 11.1875 13.714844 11.195312 13.730469 11.203125 13.730469 C 11.210938 13.730469 11.21875 13.714844 11.230469 13.699219 C 11.242188 13.679688 11.230469 13.667969 11.203125 13.667969 C 11.175781 13.667969 11.164062 13.679688 11.175781 13.699219 Z M 11.175781 13.699219 "/>
<path style=" stroke:none;fill-rule:nonzero;fill:rgb(0%,0%,0%);fill-opacity:1;" d="M 18.132812 13.691406 C 18.148438 13.730469 18.210938 13.734375 18.210938 13.699219 C 18.210938 13.679688 18.1875 13.667969 18.164062 13.667969 C 18.140625 13.667969 18.125 13.675781 18.132812 13.691406 Z M 18.132812 13.691406 "/>
<path style=" stroke:none;fill-rule:nonzero;fill:rgb(0%,0%,0%);fill-opacity:1;" d="M 14.699219 14.484375 C 14.730469 14.613281 14.789062 14.644531 14.832031 14.554688 C 14.863281 14.496094 14.851562 14.453125 14.789062 14.421875 C 14.699219 14.378906 14.679688 14.390625 14.699219 14.484375 Z M 14.699219 14.484375 "/>
<path style=" stroke:none;fill-rule:nonzero;fill:rgb(0%,0%,0%);fill-opacity:1;" d="M 15.003906 14.503906 C 15.023438 14.527344 15.03125 14.585938 15.019531 14.636719 C 15.007812 14.6875 15.011719 14.730469 15.027344 14.738281 C 15.0625 14.753906 15.28125 14.707031 15.28125 14.683594 C 15.28125 14.675781 15.300781 14.667969 15.320312 14.667969 C 15.355469 14.667969 15.453125 14.585938 15.429688 14.574219 C 15.414062 14.566406 15.007812 14.457031 14.984375 14.457031 C 14.976562 14.457031 14.980469 14.480469 15.003906 14.503906 Z M 15.003906 14.503906 "/>
<path style=" stroke:none;fill-rule:nonzero;fill:rgb(0%,0%,0%);fill-opacity:1;" d="M 18.671875 14.761719 C 18.554688 14.878906 18.023438 15.164062 17.679688 15.296875 C 17.175781 15.492188 16.441406 15.652344 15.84375 15.695312 C 15.539062 15.71875 15.515625 15.722656 15.496094 15.769531 C 15.46875 15.835938 15.460938 16.007812 15.488281 16.050781 C 15.507812 16.089844 15.675781 16.09375 16.0625 16.0625 C 17.296875 15.960938 18.289062 15.523438 18.71875 14.886719 C 18.867188 14.671875 18.835938 14.59375 18.671875 14.761719 Z M 18.671875 14.761719 "/>
<path style=" stroke:none;fill-rule:nonzero;fill:rgb(0%,0%,0%);fill-opacity:1;" d="M 13.421875 15.304688 C 13.488281 15.554688 13.929688 15.828125 14.460938 15.949219 C 14.820312 16.027344 14.804688 16.027344 14.789062 15.972656 C 14.78125 15.945312 14.789062 15.871094 14.808594 15.808594 C 14.828125 15.753906 14.839844 15.699219 14.832031 15.695312 C 14.824219 15.691406 14.738281 15.671875 14.636719 15.65625 C 14.332031 15.609375 14.027344 15.515625 13.707031 15.367188 L 13.398438 15.230469 Z M 13.421875 15.304688 "/>
<path style=" stroke:none;fill-rule:nonzero;fill:rgb(0%,0%,0%);fill-opacity:1;" d="M 14.515625 17.871094 C 14.574219 18.027344 14.6875 18.164062 14.851562 18.285156 C 14.984375 18.378906 15.242188 18.492188 15.273438 18.46875 C 15.28125 18.464844 15.199219 18.40625 15.09375 18.339844 C 14.867188 18.199219 14.625 17.980469 14.5625 17.855469 C 14.503906 17.734375 14.464844 17.75 14.515625 17.871094 Z M 14.515625 17.871094 "/>
<path style=" stroke:none;fill-rule:nonzero;fill:rgb(0%,0%,0%);fill-opacity:1;" d="M 22.113281 19.027344 C 22.085938 19.070312 22.054688 19.105469 22.042969 19.105469 C 22.035156 19.105469 22.039062 19.09375 22.050781 19.078125 C 22.0625 19.066406 22.058594 19.0625 22.035156 19.070312 C 22.015625 19.078125 22.007812 19.097656 22.015625 19.105469 C 22.039062 19.128906 21.945312 19.246094 21.855469 19.300781 C 21.820312 19.324219 21.785156 19.363281 21.773438 19.382812 C 21.757812 19.402344 21.738281 19.414062 21.722656 19.410156 C 21.707031 19.402344 21.695312 19.449219 21.691406 19.511719 C 21.691406 19.578125 21.679688 19.648438 21.667969 19.671875 C 21.652344 19.707031 21.683594 19.699219 21.816406 19.621094 C 22.011719 19.511719 22.175781 19.363281 22.214844 19.253906 C 22.285156 19.074219 22.285156 19.050781 22.226562 19 L 22.167969 18.953125 Z M 22.113281 19.027344 "/>
<path style=" stroke:none;fill-rule:nonzero;fill:rgb(0%,0%,0%);fill-opacity:1;" d="M 21.691406 19.347656 C 21.691406 19.367188 21.699219 19.375 21.710938 19.359375 C 21.71875 19.34375 21.714844 19.324219 21.707031 19.320312 C 21.695312 19.308594 21.6875 19.324219 21.691406 19.347656 Z M 21.691406 19.347656 "/>
<path style=" stroke:none;fill-rule:nonzero;fill:rgb(0%,0%,0%);fill-opacity:1;" d="M 12.351562 19.160156 C 12.414062 19.164062 12.523438 19.164062 12.585938 19.160156 C 12.648438 19.15625 12.597656 19.152344 12.46875 19.152344 C 12.339844 19.152344 12.289062 19.15625 12.351562 19.160156 Z M 12.351562 19.160156 "/>
<path style=" stroke:none;fill-rule:nonzero;fill:rgb(0%,0%,0%);fill-opacity:1;" d="M 11.804688 19.179688 C 11.878906 19.183594 11.996094 19.183594 12.070312 19.179688 C 12.144531 19.175781 12.085938 19.171875 11.9375 19.171875 C 11.789062 19.171875 11.730469 19.175781 11.804688 19.179688 Z M 11.804688 19.179688 "/>
<path style=" stroke:none;fill-rule:nonzero;fill:rgb(0%,0%,0%);fill-opacity:1;" d="M 11.273438 19.203125 C 11.328125 19.207031 11.421875 19.207031 11.476562 19.203125 C 11.53125 19.199219 11.488281 19.195312 11.375 19.195312 C 11.261719 19.195312 11.21875 19.199219 11.273438 19.203125 Z M 11.273438 19.203125 "/>
<path style=" stroke:none;fill-rule:nonzero;fill:rgb(0%,0%,0%);fill-opacity:1;" d="M 10.851562 19.222656 C 10.898438 19.226562 10.976562 19.226562 11.023438 19.222656 C 11.070312 19.21875 11.03125 19.214844 10.9375 19.214844 C 10.84375 19.214844 10.804688 19.21875 10.851562 19.222656 Z M 10.851562 19.222656 "/>
<path style=" stroke:none;fill-rule:nonzero;fill:rgb(0%,0%,0%);fill-opacity:1;" d="M 10.507812 19.242188 C 10.554688 19.246094 10.625 19.246094 10.664062 19.242188 C 10.703125 19.238281 10.664062 19.234375 10.578125 19.234375 C 10.492188 19.234375 10.460938 19.238281 10.507812 19.242188 Z M 10.507812 19.242188 "/>
<path style=" stroke:none;fill-rule:nonzero;fill:rgb(0%,0%,0%);fill-opacity:1;" d="M 10.179688 19.265625 C 10.21875 19.269531 10.28125 19.269531 10.320312 19.265625 C 10.359375 19.261719 10.328125 19.257812 10.25 19.257812 C 10.171875 19.257812 10.140625 19.261719 10.179688 19.265625 Z M 10.179688 19.265625 "/>
<path style=" stroke:none;fill-rule:nonzero;fill:rgb(0%,0%,0%);fill-opacity:1;" d="M 9.851562 19.285156 C 9.882812 19.289062 9.925781 19.289062 9.945312 19.285156 C 9.964844 19.277344 9.945312 19.273438 9.890625 19.273438 C 9.839844 19.273438 9.820312 19.277344 9.851562 19.285156 Z M 9.851562 19.285156 "/>
<path style=" stroke:none;fill-rule:nonzero;fill:rgb(0%,0%,0%);fill-opacity:1;" d="M 9.539062 19.304688 C 9.570312 19.308594 9.617188 19.308594 9.648438 19.304688 C 9.679688 19.300781 9.652344 19.296875 9.59375 19.296875 C 9.535156 19.296875 9.507812 19.300781 9.539062 19.304688 Z M 9.539062 19.304688 "/>
<path style=" stroke:none;fill-rule:nonzero;fill:rgb(0%,0%,0%);fill-opacity:1;" d="M 9.289062 19.328125 C 9.320312 19.332031 9.367188 19.332031 9.398438 19.328125 C 9.429688 19.320312 9.402344 19.316406 9.34375 19.316406 C 9.285156 19.316406 9.257812 19.320312 9.289062 19.328125 Z M 9.289062 19.328125 "/>
<path style=" stroke:none;fill-rule:nonzero;fill:rgb(0%,0%,0%);fill-opacity:1;" d="M 9.039062 19.347656 C 9.070312 19.351562 9.117188 19.351562 9.148438 19.347656 C 9.179688 19.339844 9.152344 19.335938 9.09375 19.335938 C 9.035156 19.335938 9.007812 19.339844 9.039062 19.347656 Z M 9.039062 19.347656 "/>
<path style=" stroke:none;fill-rule:nonzero;fill:rgb(0%,0%,0%);fill-opacity:1;" d="M 8.792969 19.371094 C 8.804688 19.382812 8.839844 19.386719 8.875 19.382812 C 8.960938 19.367188 8.953125 19.355469 8.855469 19.355469 C 8.8125 19.355469 8.785156 19.363281 8.792969 19.371094 Z M 8.792969 19.371094 "/>
<path style=" stroke:none;fill-rule:nonzero;fill:rgb(0%,0%,0%);fill-opacity:1;" d="M 8.84375 19.425781 C 8.84375 19.429688 8.867188 19.445312 8.898438 19.460938 C 8.945312 19.488281 8.949219 19.484375 8.910156 19.453125 C 8.867188 19.417969 8.84375 19.410156 8.84375 19.425781 Z M 8.84375 19.425781 "/>
<path style=" stroke:none;fill-rule:nonzero;fill:rgb(0%,0%,0%);fill-opacity:1;" d="M 9.484375 19.875 C 9.515625 19.898438 9.546875 19.917969 9.554688 19.917969 C 9.566406 19.917969 9.546875 19.898438 9.515625 19.875 C 9.484375 19.851562 9.453125 19.832031 9.445312 19.832031 C 9.433594 19.832031 9.453125 19.851562 9.484375 19.875 Z M 9.484375 19.875 "/>
<path style=" stroke:none;fill-rule:nonzero;fill:rgb(0%,0%,0%);fill-opacity:1;" d="M 21.394531 20.226562 C 21.386719 20.234375 21.390625 20.253906 21.410156 20.269531 C 21.429688 20.296875 21.4375 20.292969 21.4375 20.253906 C 21.4375 20.207031 21.421875 20.195312 21.394531 20.226562 Z M 21.394531 20.226562 "/>
<path style=" stroke:none;fill-rule:nonzero;fill:rgb(0%,0%,0%);fill-opacity:1;" d="M 21.3125 20.347656 C 21.238281 20.371094 21.238281 20.375 21.304688 20.375 C 21.339844 20.375 21.382812 20.363281 21.390625 20.351562 C 21.425781 20.320312 21.398438 20.316406 21.3125 20.347656 Z M 21.3125 20.347656 "/>
<path style=" stroke:none;fill-rule:nonzero;fill:rgb(0%,0%,0%);fill-opacity:1;" d="M 11.234375 20.492188 C 11.046875 20.511719 10.851562 20.523438 10.804688 20.523438 C 10.757812 20.527344 10.722656 20.53125 10.726562 20.535156 C 10.867188 20.628906 12.15625 21.09375 12.15625 21.050781 C 12.15625 21.046875 11.976562 20.980469 11.757812 20.910156 C 11.539062 20.832031 11.242188 20.722656 11.09375 20.664062 L 10.828125 20.550781 L 10.984375 20.535156 C 11.070312 20.527344 11.296875 20.507812 11.484375 20.492188 C 11.675781 20.476562 11.773438 20.460938 11.703125 20.460938 C 11.632812 20.460938 11.425781 20.476562 11.234375 20.492188 Z M 11.234375 20.492188 "/>
<path style=" stroke:none;fill-rule:nonzero;fill:rgb(0%,0%,0%);fill-opacity:1;" d="M 15.210938 20.652344 C 15.023438 20.679688 14.917969 20.714844 15.097656 20.699219 C 15.253906 20.679688 15.523438 20.628906 15.453125 20.628906 C 15.417969 20.628906 15.308594 20.640625 15.210938 20.652344 Z M 15.210938 20.652344 "/>
<path style=" stroke:none;fill-rule:nonzero;fill:rgb(0%,0%,0%);fill-opacity:1;" d="M 18.28125 20.667969 C 18.253906 20.679688 18.25 20.6875 18.273438 20.6875 C 18.289062 20.6875 18.320312 20.675781 18.328125 20.667969 C 18.351562 20.640625 18.339844 20.640625 18.28125 20.667969 Z M 18.28125 20.667969 "/>
<path style=" stroke:none;fill-rule:nonzero;fill:rgb(0%,0%,0%);fill-opacity:1;" d="M 15.203125 20.730469 C 15.210938 20.738281 15.226562 20.75 15.238281 20.75 C 15.242188 20.75 15.25 20.738281 15.25 20.730469 C 15.25 20.714844 15.234375 20.707031 15.214844 20.707031 C 15.199219 20.707031 15.195312 20.714844 15.203125 20.730469 Z M 15.203125 20.730469 "/>
<path style=" stroke:none;fill-rule:nonzero;fill:rgb(0%,0%,0%);fill-opacity:1;" d="M 19.5 21.144531 C 19.472656 21.160156 19.46875 21.167969 19.492188 21.167969 C 19.507812 21.167969 19.539062 21.15625 19.546875 21.144531 C 19.570312 21.121094 19.558594 21.121094 19.5 21.144531 Z M 19.5 21.144531 "/>
<path style=" stroke:none;fill-rule:nonzero;fill:rgb(0%,0%,0%);fill-opacity:1;" d="M 19.34375 21.1875 C 19.320312 21.199219 19.3125 21.207031 19.328125 21.207031 C 19.347656 21.207031 19.382812 21.199219 19.40625 21.1875 C 19.429688 21.175781 19.441406 21.167969 19.421875 21.167969 C 19.40625 21.167969 19.367188 21.175781 19.34375 21.1875 Z M 19.34375 21.1875 "/>
<path style=" stroke:none;fill-rule:nonzero;fill:rgb(0%,0%,0%);fill-opacity:1;" d="M 18.585938 21.203125 C 18.609375 21.207031 18.636719 21.207031 18.648438 21.199219 C 18.660156 21.195312 18.640625 21.1875 18.605469 21.191406 C 18.570312 21.191406 18.5625 21.195312 18.585938 21.203125 Z M 18.585938 21.203125 "/>
<path style=" stroke:none;fill-rule:nonzero;fill:rgb(0%,0%,0%);fill-opacity:1;" d="M 18.179688 21.242188 C 18.203125 21.25 18.230469 21.246094 18.242188 21.242188 C 18.253906 21.234375 18.234375 21.230469 18.199219 21.230469 C 18.164062 21.230469 18.15625 21.238281 18.179688 21.242188 Z M 18.179688 21.242188 "/>
<path style=" stroke:none;fill-rule:nonzero;fill:rgb(0%,0%,0%);fill-opacity:1;" d="M 18.054688 21.265625 C 18.078125 21.269531 18.105469 21.269531 18.117188 21.261719 C 18.128906 21.257812 18.109375 21.25 18.074219 21.253906 C 18.039062 21.253906 18.03125 21.257812 18.054688 21.265625 Z M 18.054688 21.265625 "/>
<path style=" stroke:none;fill-rule:nonzero;fill:rgb(0%,0%,0%);fill-opacity:1;" d="M 17.929688 21.285156 C 17.953125 21.292969 17.980469 21.289062 17.992188 21.285156 C 18.003906 21.277344 17.984375 21.269531 17.949219 21.273438 C 17.914062 21.273438 17.90625 21.277344 17.929688 21.285156 Z M 17.929688 21.285156 "/>
<path style=" stroke:none;fill-rule:nonzero;fill:rgb(0%,0%,0%);fill-opacity:1;" d="M 18.859375 21.292969 C 18.820312 21.300781 18.816406 21.308594 18.84375 21.308594 C 18.867188 21.308594 18.917969 21.300781 18.953125 21.292969 C 18.992188 21.28125 18.996094 21.273438 18.96875 21.273438 C 18.945312 21.273438 18.894531 21.28125 18.859375 21.292969 Z M 18.859375 21.292969 "/>
<path style=" stroke:none;fill-rule:nonzero;fill:rgb(0%,0%,0%);fill-opacity:1;" d="M 14.460938 21.304688 C 14.515625 21.308594 14.609375 21.308594 14.664062 21.304688 C 14.71875 21.300781 14.675781 21.296875 14.5625 21.296875 C 14.449219 21.296875 14.40625 21.300781 14.460938 21.304688 Z M 14.460938 21.304688 "/>
<path style=" stroke:none;fill-rule:nonzero;fill:rgb(0%,0%,0%);fill-opacity:1;" d="M 18.65625 21.332031 C 18.601562 21.359375 18.648438 21.359375 18.734375 21.332031 C 18.773438 21.320312 18.78125 21.316406 18.75 21.316406 C 18.726562 21.316406 18.679688 21.324219 18.65625 21.332031 Z M 18.65625 21.332031 "/>
<path style=" stroke:none;fill-rule:nonzero;fill:rgb(0%,0%,0%);fill-opacity:1;" d="M 16.070312 21.347656 C 16.101562 21.351562 16.144531 21.351562 16.164062 21.347656 C 16.183594 21.339844 16.164062 21.335938 16.109375 21.335938 C 16.058594 21.335938 16.039062 21.339844 16.070312 21.347656 Z M 16.070312 21.347656 "/>
<path style=" stroke:none;fill-rule:nonzero;fill:rgb(0%,0%,0%);fill-opacity:1;" d="M 16.5625 21.375 C 16.5625 21.386719 16.621094 21.394531 16.695312 21.394531 C 16.847656 21.394531 16.839844 21.386719 16.679688 21.367188 C 16.605469 21.359375 16.5625 21.359375 16.5625 21.375 Z M 16.5625 21.375 "/>
<path style=" stroke:none;fill-rule:nonzero;fill:rgb(0%,0%,0%);fill-opacity:1;" d="M 17.164062 21.367188 C 17.195312 21.371094 17.242188 21.371094 17.273438 21.367188 C 17.304688 21.363281 17.277344 21.359375 17.21875 21.359375 C 17.160156 21.359375 17.132812 21.363281 17.164062 21.367188 Z M 17.164062 21.367188 "/>
<path style=" stroke:none;fill-rule:nonzero;fill:rgb(0%,0%,0%);fill-opacity:1;" d="M 18.398438 21.390625 C 18.421875 21.394531 18.449219 21.394531 18.460938 21.386719 C 18.472656 21.382812 18.453125 21.375 18.417969 21.378906 C 18.382812 21.378906 18.375 21.382812 18.398438 21.390625 Z M 18.398438 21.390625 "/>
<path style=" stroke:none;fill-rule:nonzero;fill:rgb(0%,0%,0%);fill-opacity:1;" d="M 18.273438 21.410156 C 18.296875 21.417969 18.324219 21.414062 18.335938 21.410156 C 18.347656 21.402344 18.328125 21.394531 18.292969 21.398438 C 18.257812 21.398438 18.25 21.402344 18.273438 21.410156 Z M 18.273438 21.410156 "/>
<path style=" stroke:none;fill-rule:nonzero;fill:rgb(0%,0%,0%);fill-opacity:1;" d="M 18.117188 21.429688 C 18.140625 21.4375 18.167969 21.433594 18.179688 21.429688 C 18.191406 21.421875 18.171875 21.417969 18.136719 21.417969 C 18.101562 21.417969 18.09375 21.425781 18.117188 21.429688 Z M 18.117188 21.429688 "/>
<path style=" stroke:none;fill-rule:nonzero;fill:rgb(0%,0%,0%);fill-opacity:1;" d="M 17.960938 21.453125 C 17.980469 21.457031 18.019531 21.457031 18.039062 21.453125 C 18.058594 21.445312 18.042969 21.441406 18 21.441406 C 17.957031 21.441406 17.941406 21.445312 17.960938 21.453125 Z M 17.960938 21.453125 "/>
<path style=" stroke:none;fill-rule:nonzero;fill:rgb(0%,0%,0%);fill-opacity:1;" d="M 17.773438 21.472656 C 17.792969 21.476562 17.832031 21.476562 17.851562 21.472656 C 17.871094 21.464844 17.855469 21.460938 17.8125 21.460938 C 17.769531 21.460938 17.753906 21.464844 17.773438 21.472656 Z M 17.773438 21.472656 "/>
<path style=" stroke:none;fill-rule:nonzero;fill:rgb(0%,0%,0%);fill-opacity:1;" d="M 17.585938 21.492188 C 17.605469 21.496094 17.644531 21.496094 17.664062 21.492188 C 17.683594 21.488281 17.667969 21.484375 17.625 21.484375 C 17.582031 21.484375 17.566406 21.488281 17.585938 21.492188 Z M 17.585938 21.492188 "/>
<path style=" stroke:none;fill-rule:nonzero;fill:rgb(0%,0%,0%);fill-opacity:1;" d="M 17.398438 21.515625 C 17.417969 21.519531 17.457031 21.519531 17.476562 21.515625 C 17.496094 21.507812 17.480469 21.503906 17.4375 21.503906 C 17.394531 21.503906 17.378906 21.507812 17.398438 21.515625 Z M 17.398438 21.515625 "/>
<path style=" stroke:none;fill-rule:nonzero;fill:rgb(0%,0%,0%);fill-opacity:1;" d="M 17.148438 21.535156 C 17.171875 21.542969 17.199219 21.539062 17.210938 21.535156 C 17.222656 21.527344 17.203125 21.519531 17.167969 21.523438 C 17.132812 21.523438 17.125 21.527344 17.148438 21.535156 Z M 17.148438 21.535156 "/>
</g>
</svg>
